# Blender 5.2.2 LTS
# www.blender.org
mtllib Mi_24_heli_back.mtl
o polySurface233.002
v 0.414177 1.941879 -5.659146
v 0.414177 1.941928 -5.615060
v 0.401752 1.935719 -5.611466
v 0.401752 1.935662 -5.662726
v 0.389327 1.941928 -5.615060
v 0.389327 1.941879 -5.659146
v 0.420183 2.038229 -5.669994
v 0.420183 2.038481 -5.604591
v 0.412153 1.991860 -5.618706
v 0.412153 1.991817 -5.655612
v 0.401752 2.029284 -5.599235
v 0.401752 1.986662 -5.615697
v 0.401752 2.028992 -5.675279
v 0.401752 1.986614 -5.658609
v 0.383318 2.038481 -5.604591
v 0.391351 1.991860 -5.618706
v 0.383318 2.038229 -5.669994
v 0.391351 1.991817 -5.655612
v 0.414177 1.985699 -5.615109
v 0.414177 1.985649 -5.659195
v 0.401752 1.979490 -5.611516
v 0.401752 1.979432 -5.662775
v 0.389327 1.985698 -5.615109
v 0.389327 1.985649 -5.659195
v 0.401752 2.095217 -5.604270
v 0.401752 2.124099 -5.621198
v 0.420183 2.133349 -5.615938
v 0.420183 2.095288 -5.593628
v 0.401752 2.066117 -5.620817
v 0.420183 2.056936 -5.615436
v 0.401752 2.065897 -5.654293
v 0.420183 2.056644 -5.659554
v 0.401752 2.094778 -5.671222
v 0.420183 2.094707 -5.681864
v 0.401752 2.123878 -5.654675
v 0.420183 2.133060 -5.660056
v 0.420183 2.151851 -5.605417
v 0.420183 2.095428 -5.572344
v 0.420183 2.094588 -5.702832
v 0.420183 2.151454 -5.670527
v 0.414176 2.153394 -5.494525
v 0.414176 2.191428 -5.516819
v 0.401751 2.197664 -5.513273
v 0.401751 2.153443 -5.487351
v 0.401752 2.095498 -5.561702
v 0.401752 2.094512 -5.713474
v 0.401752 2.160634 -5.675911
v 0.401752 2.161103 -5.600157
v 0.389327 2.191430 -5.516819
v 0.389327 2.153394 -5.494525
v 0.383318 2.095428 -5.572344
v 0.383318 2.094588 -5.702832
v 0.383318 2.151454 -5.670527
v 0.383318 2.151851 -5.605417
v 0.383318 2.133349 -5.615938
v 0.383318 2.095288 -5.593628
v 0.383318 2.056936 -5.615436
v 0.383318 2.056644 -5.659554
v 0.383318 2.094707 -5.681864
v 0.383318 2.133060 -5.660056
v 0.412153 2.163080 -5.558084
v 0.412153 2.131241 -5.539421
v 0.401752 2.168302 -5.555115
v 0.401752 2.131280 -5.533416
v 0.391351 2.163080 -5.558084
v 0.391351 2.131241 -5.539422
v 0.414177 2.169296 -5.554580
v 0.414177 2.131262 -5.532287
v 0.401752 2.175532 -5.551034
v 0.401752 2.131309 -5.525114
v 0.389327 2.169296 -5.554580
v 0.389327 2.131262 -5.532287
v 0.414177 2.189826 -5.759375
v 0.414177 2.151485 -5.781137
v 0.401752 2.151433 -5.788310
v 0.401752 2.196012 -5.763008
v 0.389327 2.151485 -5.781137
v 0.389327 2.189826 -5.759375
v 0.412153 2.129959 -5.735936
v 0.412153 2.162055 -5.717720
v 0.401752 2.129915 -5.741941
v 0.401752 2.167233 -5.720760
v 0.391351 2.129959 -5.735937
v 0.391351 2.162055 -5.717720
v 0.414177 2.129879 -5.743070
v 0.414177 2.168221 -5.721309
v 0.401752 2.129827 -5.750243
v 0.401752 2.174407 -5.724941
v 0.389327 2.129879 -5.743070
v 0.389327 2.168221 -5.721309
v 0.435329 2.192811 -5.688944
v 0.434915 2.207496 -5.650880
v 0.453766 2.207353 -5.650620
v 0.454180 2.192668 -5.688684
v 0.434282 2.194278 -5.612286
v 0.453133 2.194134 -5.612025
v 0.433851 2.139553 -5.611107
v 0.433295 2.104615 -5.590040
v 0.452146 2.104473 -5.589780
v 0.452702 2.139410 -5.610847
v 0.432463 2.080271 -5.543123
v 0.432244 2.039963 -5.549443
v 0.451096 2.039820 -5.549182
v 0.451314 2.080128 -5.542863
v 0.432466 2.013145 -5.580191
v 0.451317 2.013003 -5.579930
v 0.433298 2.037489 -5.627107
v 0.433855 2.036711 -5.667896
v 0.452706 2.036567 -5.667636
v 0.452149 2.037348 -5.626847
v 0.434238 2.006889 -5.712007
v 0.434886 2.031373 -5.745518
v 0.453737 2.031229 -5.745258
v 0.453089 2.006746 -5.711747
v 0.435298 2.071409 -5.753364
v 0.454149 2.071266 -5.753104
v 0.434899 2.102371 -5.707488
v 0.434898 2.138087 -5.687766
v 0.453749 2.137944 -5.687505
v 0.453751 2.102227 -5.707228
v 0.475063 2.109035 -5.663125
v 0.474915 2.114270 -5.649553
v 0.474748 2.093008 -5.649149
v 0.474689 2.109558 -5.635793
v 0.474491 2.097100 -5.628281
v 0.474413 2.082729 -5.630534
v 0.474492 2.073167 -5.641497
v 0.474691 2.072889 -5.656041
v 0.474916 2.082025 -5.667359
v 0.475063 2.096299 -5.670157
v 0.453335 2.152628 -5.649441
v 0.451928 2.064166 -5.596099
v 0.453339 2.062191 -5.699381
v 0.433077 2.064308 -5.596360
v 0.434488 2.062334 -5.699642
v 0.434484 2.152771 -5.649702
v 0.434480 2.117965 -5.670281
v 0.434256 2.125897 -5.649723
v 0.433914 2.118758 -5.628877
v 0.433614 2.099889 -5.617499
v 0.433496 2.078116 -5.620912
v 0.433615 2.063632 -5.637520
v 0.433916 2.063211 -5.659550
v 0.434258 2.077050 -5.676696
v 0.434480 2.098675 -5.680934
v 0.331951 2.117965 -5.670281
v 0.331728 2.125897 -5.649723
v 0.331386 2.118758 -5.628877
v 0.331086 2.099889 -5.617499
v 0.330968 2.078116 -5.620912
v 0.331087 2.063632 -5.637520
v 0.331388 2.063211 -5.659550
v 0.331730 2.077050 -5.676696
v 0.331952 2.098675 -5.680934
v 0.457456 2.060796 -5.584304
v 0.457456 2.045785 -5.579426
v 0.365037 2.045785 -5.579426
v 0.365037 2.060796 -5.584304
v 0.457456 2.045785 -5.563643
v 0.365037 2.045785 -5.563643
v 0.457456 2.060796 -5.558766
v 0.365037 2.060796 -5.558766
v 0.457456 2.070074 -5.571535
v 0.365037 2.070074 -5.571535
v 0.457456 2.056648 -5.571535
v 0.365037 2.056648 -5.571535
v 0.457456 2.176776 -5.661000
v 0.457456 2.161767 -5.656124
v 0.365037 2.161767 -5.656124
v 0.365037 2.176776 -5.661000
v 0.457456 2.161767 -5.640340
v 0.365037 2.161767 -5.640340
v 0.457456 2.176776 -5.635464
v 0.365037 2.176776 -5.635464
v 0.457456 2.186054 -5.648232
v 0.365037 2.186054 -5.648232
v 0.457456 2.172629 -5.648232
v 0.365037 2.172629 -5.648232
v 0.457456 2.057055 -5.728344
v 0.457456 2.042045 -5.723467
v 0.365037 2.042045 -5.723467
v 0.365037 2.057055 -5.728344
v 0.457456 2.042045 -5.707684
v 0.365037 2.042045 -5.707684
v 0.457456 2.057055 -5.702807
v 0.365037 2.057055 -5.702807
v 0.457456 2.066332 -5.715576
v 0.365037 2.066332 -5.715576
v 0.457456 2.052907 -5.715576
v 0.365037 2.052907 -5.715576
v 0.391532 1.944342 -5.676383
v 0.400479 1.956025 -5.600869
v 0.411561 1.956025 -5.600869
v 0.395663 1.944342 -5.676383
v 0.411561 1.855586 -5.601007
v 0.395663 1.855728 -5.703856
v 0.395663 1.216766 -5.704738
v 0.411561 1.216626 -5.601888
v 0.400479 1.216626 -5.601888
v 0.391532 1.216766 -5.704738
v 0.400479 1.855586 -5.601007
v 0.391532 1.855728 -5.703856
v 0.391532 2.192248 -5.740839
v 0.400479 2.121907 -5.770690
v 0.411561 2.121907 -5.770690
v 0.395663 2.192248 -5.740839
v 0.411561 2.174937 -5.855989
v 0.395663 2.262283 -5.801686
v 0.395663 2.599644 -6.344326
v 0.411561 2.512300 -6.398629
v 0.400479 2.512300 -6.398629
v 0.391532 2.599644 -6.344326
v 0.400479 2.174937 -5.855989
v 0.391532 2.262283 -5.801686
v 0.391532 2.131422 -5.500160
v 0.400479 2.188844 -5.550572
v 0.411561 2.188844 -5.550572
v 0.395663 2.131422 -5.500160
v 0.411561 2.242671 -5.465773
v 0.395663 2.155838 -5.410655
v 0.395663 2.498260 -4.871194
v 0.411561 2.585093 -4.926312
v 0.400479 2.585093 -4.926312
v 0.391532 2.498260 -4.871194
v 0.400479 2.242671 -5.465773
v 0.391532 2.155838 -5.410655
vn 0.4472 -0.8944 0.0010
vn -0.4472 -0.8944 0.0010
vn 0.9854 -0.1701 0.0005
vn 0.9854 -0.1703 0.0007
vn 0.4108 -0.3283 0.8505
vn 0.4105 -0.3285 0.8506
vn 0.4109 -0.3283 0.8505
vn 0.4108 -0.3339 -0.8484
vn 0.4112 -0.3337 -0.8483
vn 0.4114 -0.3336 -0.8482
vn -0.4108 -0.3283 0.8506
vn -0.4105 -0.3285 0.8506
vn -0.4104 -0.3285 0.8507
vn -0.9854 -0.1701 0.0005
vn -0.9854 -0.1702 0.0005
vn -0.9855 -0.1699 0.0002
vn -0.4107 -0.3339 -0.8484
vn -0.4112 -0.3337 -0.8483
vn -0.4106 -0.3340 -0.8484
vn 0.9501 0.3119 -0.0004
vn -0.0000 0.5037 0.8639
vn -0.0018 0.5037 0.8639
vn -0.0018 0.5038 0.8638
vn -0.0000 0.5018 -0.8650
vn -0.0018 0.5018 -0.8650
vn 0.0018 0.5037 0.8639
vn -0.0000 0.5036 0.8639
vn -0.9501 0.3119 -0.0003
vn -0.9501 0.3119 -0.0004
vn 0.0018 0.5018 -0.8650
vn 1.0000 -0.0000 -0.0000
vn 0.2773 0.0011 0.9608
vn 0.2774 -0.0011 -0.9608
vn -0.2773 0.0011 0.9608
vn -1.0000 -0.0000 -0.0000
vn -0.2774 -0.0011 -0.9608
vn 0.4473 -0.4523 -0.7716
vn 0.4472 -0.4523 -0.7716
vn 0.4472 0.4421 -0.7775
vn 0.4473 0.4421 -0.7775
vn 0.4473 0.8944 -0.0059
vn 0.4473 0.4523 0.7716
vn 0.4472 0.4523 0.7716
vn 0.4472 -0.4421 0.7775
vn 0.4472 -0.8944 0.0059
vn 0.4466 -0.4412 0.7784
vn 0.4474 -0.4408 0.7782
vn 0.4464 -0.4413 0.7785
vn 0.4474 -0.4504 -0.7727
vn 0.4477 -0.4502 -0.7726
vn 0.4479 -0.4501 -0.7725
vn 0.4471 0.8945 -0.0055
vn 0.4473 0.8944 -0.0055
vn 0.4473 0.8943 -0.0055
vn -0.4473 0.4523 0.7716
vn -0.4473 -0.4408 0.7782
vn -0.4465 -0.4412 0.7784
vn -0.4463 -0.4413 0.7785
vn -0.4477 -0.4502 -0.7726
vn -0.4473 -0.4504 -0.7727
vn -0.4478 -0.4501 -0.7725
vn -0.4472 0.8944 -0.0055
vn -0.4471 0.8945 -0.0055
vn -0.4473 0.8944 -0.0055
vn -0.4472 -0.4523 -0.7717
vn -0.4472 -0.4523 -0.7716
vn -0.4472 0.4421 -0.7775
vn -0.4472 0.8944 -0.0059
vn -0.4472 0.4523 0.7716
vn -0.4471 -0.4421 0.7775
vn -0.4472 -0.4421 0.7775
vn -0.4471 -0.4421 0.7776
vn -0.4472 -0.8944 0.0059
vn 0.9854 0.0860 0.1468
vn 0.4108 0.9003 -0.1439
vn 0.4108 -0.5654 0.7152
vn 0.4108 -0.5654 0.7153
vn -0.4108 0.9003 -0.1439
vn -0.9854 0.0861 0.1468
vn -0.4108 -0.5654 0.7153
vn -0.4108 -0.5654 0.7152
vn 0.9501 -0.1577 -0.2691
vn -0.0000 0.4916 -0.8708
vn -0.0018 0.4916 -0.8708
vn -0.0000 -1.0000 0.0034
vn -0.0018 -1.0000 0.0034
vn 0.0018 0.4916 -0.8708
vn -0.9501 -0.1577 -0.2691
vn 0.0018 -1.0000 0.0034
vn 0.2773 0.8289 -0.4858
vn 0.2773 -0.8289 0.4858
vn -0.2773 0.8289 -0.4859
vn -0.2773 -0.8289 0.4858
vn 0.4472 0.4415 -0.7779
vn -0.4473 0.4415 -0.7778
vn -0.4472 0.4415 -0.7779
vn 0.9853 0.0844 -0.1487
vn 0.4123 -0.5709 -0.7100
vn 0.4105 0.9021 0.1328
vn 0.4104 0.9022 0.1328
vn -0.4122 -0.5709 -0.7100
vn -0.9853 0.0845 -0.1488
vn -0.4104 0.9022 0.1328
vn -0.4105 0.9022 0.1328
vn 0.9501 -0.1540 0.2713
vn -0.0000 -0.9999 0.0106
vn -0.0019 -0.9999 0.0106
vn -0.0000 0.5036 0.8640
vn -0.0018 0.5035 0.8640
vn 0.0019 -0.9999 0.0106
vn -0.9501 -0.1540 0.2713
vn 0.0018 0.5035 0.8640
vn 0.2774 -0.8356 -0.4742
vn 0.2773 -0.8356 -0.4743
vn 0.2774 0.8356 0.4742
vn 0.2773 0.8356 0.4742
vn -0.2774 -0.8356 -0.4742
vn -0.2773 -0.8356 -0.4742
vn -0.2774 0.8356 0.4742
vn -0.2773 0.8356 0.4742
vn 0.0120 0.9330 -0.3598
vn 0.0121 0.9330 -0.3598
vn 0.0027 0.9460 0.3241
vn -0.0079 0.5165 0.8563
vn -0.0148 -0.1548 0.9878
vn -0.0148 -0.7536 0.6572
vn -0.0078 -0.9998 0.0190
vn 0.0020 -0.8075 -0.5899
vn 0.0121 -0.1924 -0.9812
vn 0.0158 0.4833 -0.8753
vn 0.0157 0.4833 -0.8753
vn 0.9999 -0.0076 0.0138
vn 0.8575 0.4830 -0.1770
vn 0.8576 0.4830 -0.1770
vn 0.8577 0.4820 0.1792
vn 0.8565 0.2565 0.4479
vn 0.8565 0.2565 0.4480
vn 0.8546 -0.0849 0.5123
vn 0.8530 -0.3903 0.3466
vn 0.8522 -0.5228 0.0216
vn 0.8522 -0.5227 0.0216
vn 0.8522 -0.5228 0.0217
vn 0.8527 -0.4147 -0.3177
vn 0.8527 -0.4146 -0.3178
vn 0.8542 -0.1085 -0.5084
vn 0.8562 0.2498 -0.4523
vn -0.9999 0.0074 -0.0135
vn -0.9999 0.0076 -0.0138
vn -0.9999 0.0077 -0.0132
vn 0.0004 0.8876 0.4606
vn -0.0003 -0.8876 -0.4606
vn -0.9999 0.0074 -0.0141
vn -0.9999 0.0070 -0.0140
vn -0.0140 -0.8284 0.5599
vn 0.0140 0.8289 -0.5593
vn -0.9999 0.0079 -0.0138
vn -0.9999 0.0080 -0.0142
vn 0.0137 -0.0216 -0.9997
vn 0.0136 -0.0216 -0.9997
vn -0.0136 0.0216 0.9997
vn -0.0137 0.0216 0.9997
vn -0.9999 0.0085 -0.0138
vn -0.9999 0.0083 -0.0132
vn -0.9999 0.0080 -0.0134
vn -0.9999 0.0078 -0.0129
vn -0.9999 0.0072 -0.0130
vn -0.9999 0.0070 -0.0136
vn -0.9999 0.0068 -0.0135
vn -0.9999 0.0067 -0.0141
vn -0.9999 0.0071 -0.0146
vn -0.9999 0.0077 -0.0144
vn -0.9999 0.0077 -0.0147
vn -0.9999 0.0083 -0.0144
vn -0.0000 0.9330 -0.3600
vn -0.0000 0.9461 0.3240
vn -0.0000 0.5164 0.8564
vn -0.0000 -0.1549 0.9879
vn -0.0000 -0.7537 0.6573
vn -0.0000 -0.7536 0.6573
vn -0.0000 -0.9998 0.0191
vn -0.0000 -0.7781 -0.6281
vn -0.0000 -0.7782 -0.6281
vn -0.0000 -0.1923 -0.9813
vn -0.0000 0.4834 -0.8754
vn -0.0000 -0.3091 -0.9510
vn -0.0000 -1.0000 -0.0000
vn -0.0000 -0.3090 0.9511
vn -0.0000 0.8090 0.5878
vn -0.0000 0.8090 -0.5878
vn -0.0000 -0.3089 -0.9511
vn -0.0000 -0.3089 0.9511
vn -0.0000 -0.3090 -0.9511
vn -0.0000 0.9882 -0.1529
vn 0.9835 0.0239 -0.1794
vn 0.9862 0.0131 -0.1649
vn 0.9878 0.0226 -0.1539
vn -0.0000 -1.0000 -0.0014
vn -0.9962 -0.0001 0.0867
vn -0.9961 -0.0126 0.0871
vn -0.0000 -0.0014 1.0000
vn -0.0000 0.0014 -1.0000
vn -0.0000 0.1504 -0.9886
vn 0.9883 0.0002 -0.1528
vn -0.9956 -0.0075 0.0937
vn -0.9947 -0.0134 0.1022
vn -0.0000 0.2961 -0.9552
vn -0.0000 -0.3907 0.9205
vn 0.9835 0.1399 0.1148
vn 0.9862 0.1333 0.0980
vn 0.9878 0.1189 0.1004
vn -0.0000 0.5280 -0.8493
vn -0.9962 -0.0736 -0.0458
vn -0.9961 -0.0674 -0.0568
vn -0.0000 -0.8493 -0.5280
vn -0.0000 0.8493 0.5280
vn -0.0000 0.7611 0.6487
vn 0.9883 0.1297 0.0807
vn -0.9956 -0.0757 -0.0557
vn -0.9947 -0.0798 -0.0653
vn -0.0000 0.6559 0.7549
vn -0.0000 -0.6597 -0.7515
vn 0.9835 -0.1641 0.0762
vn 0.9862 -0.1461 0.0776
vn 0.9878 -0.1419 0.0636
vn -0.0000 0.5359 0.8443
vn -0.9962 0.0732 -0.0464
vn -0.9961 0.0806 -0.0361
vn -0.0000 0.8443 -0.5359
vn -0.0000 -0.8443 0.5359
vn -0.0000 -0.9147 0.4041
vn 0.9883 -0.1290 0.0819
vn -0.9956 0.0830 -0.0440
vn -0.9947 0.0935 -0.0436
vn -0.0000 -0.9647 0.2632
vn 0.9855 -0.1698 0.0002
vn 0.4104 -0.3285 0.8507
vn 0.4107 -0.3340 -0.8484
vn -0.4108 -0.3283 0.8505
vn -0.9854 -0.1703 0.0007
vn -0.4114 -0.3337 -0.8482
vn 0.0019 0.5037 0.8639
vn 0.4472 0.8944 -0.0059
vn 0.4473 -0.8944 0.0059
vn 0.4477 -0.4406 0.7781
vn 0.4473 -0.4504 -0.7727
vn -0.4476 -0.4406 0.7781
vn -0.4472 -0.4504 -0.7727
vn -0.4470 0.8945 -0.0055
vn 0.4109 -0.5654 0.7152
vn -0.0018 -1.0000 0.0035
vn 0.0018 0.4915 -0.8708
vn -0.4471 0.4415 -0.7779
vn 0.9853 0.0845 -0.1487
vn -0.9853 0.0844 -0.1487
vn 0.0121 0.9329 -0.3598
vn -0.0149 -0.1548 0.9878
vn 0.0158 0.4834 -0.8753
vn 0.8542 -0.1084 -0.5084
vn 0.8562 0.2497 -0.4523
vn 0.9785 0.0003 -0.2061
vn -0.9931 -0.0002 0.1177
vn 0.9785 0.1750 0.1088
vn -0.9931 -0.0999 -0.0621
vn 0.9785 -0.1740 0.1104
vn -0.9931 0.0994 -0.0631
vt 0.984263 0.834451
vt 0.974019 0.826163
vt 0.986570 0.831393
vt 0.918370 0.883877
vt 0.920364 0.870851
vt 0.921920 0.882437
vt 0.960463 0.853369
vt 0.978407 0.846896
vt 0.976851 0.860153
vt 0.958094 0.848316
vt 0.968762 0.842876
vt 0.982099 0.858251
vt 0.981795 0.846437
vt 0.942039 0.860732
vt 0.934063 0.869638
vt 0.931961 0.866942
vt 0.946321 0.864313
vt 0.935455 0.879994
vt 0.945499 0.886479
vt 0.948683 0.881895
vt 0.979531 0.845124
vt 0.966699 0.840150
vt 0.969226 0.840831
vt 0.983115 0.844874
vt 0.931967 0.869559
vt 0.929947 0.866589
vt 0.934139 0.883149
vt 0.933454 0.880623
vt 0.973473 0.829956
vt 0.966879 0.838111
vt 0.988060 0.834378
vt 0.918388 0.867608
vt 0.932288 0.884020
vt 0.955378 0.867996
vt 0.952798 0.878766
vt 0.951116 0.866247
vt 0.961126 0.858527
vt 0.961737 0.863092
vt 0.969163 0.866143
vt 0.972808 0.863328
vt 0.974490 0.875856
vt 0.970232 0.874102
vt 0.964490 0.883571
vt 0.963874 0.879008
vt 0.956447 0.875954
vt 0.979178 0.877826
vt 0.965140 0.888669
vt 0.921921 0.882437
vt 0.916560 0.870401
vt 0.920365 0.870852
vt 0.942038 0.860732
vt 0.984739 0.878302
vt 0.945498 0.886480
vt 0.964177 0.894166
vt 0.965140 0.888668
vt 0.979178 0.877827
vt 0.976852 0.860153
vt 0.951117 0.866247
vt 0.972809 0.863328
vt 0.969163 0.866144
vt 0.963874 0.879007
vt 0.970231 0.874103
vt 0.934064 0.869638
vt 0.978408 0.846896
vt 0.981796 0.846437
vt 0.929947 0.866590
vt 0.979532 0.845124
vt 0.918388 0.867609
vt 0.984262 0.834450
vt 0.966879 0.838112
vt 0.983713 0.907844
vt 0.995988 0.903054
vt 0.985225 0.911363
vt 0.995988 0.903055
vt 0.983714 0.907844
vt 0.992966 0.900701
vt 0.984079 0.890202
vt 0.975809 0.896591
vt 0.964178 0.894166
vt 0.974526 0.899759
vt 0.975810 0.896591
vt 0.985625 0.891622
vt 0.976789 0.898445
vt 0.987471 0.889769
vt 0.975229 0.901680
vt 0.975230 0.901681
vt 0.987471 0.889768
vt 0.989150 0.890934
vt 0.992965 0.900700
vt 0.981894 0.911178
vt 0.832371 0.099985
vt 0.816129 0.107328
vt 0.826195 0.094534
vt 0.804042 0.120426
vt 0.820424 0.113279
vt 0.781089 0.100856
vt 0.768685 0.086979
vt 0.785794 0.094628
vt 0.738053 0.090882
vt 0.739916 0.073158
vt 0.745873 0.088295
vt 0.732608 0.073863
vt 0.742862 0.057146
vt 0.762143 0.045771
vt 0.780426 0.041893
vt 0.765271 0.052924
vt 0.791720 0.012957
vt 0.806789 0.022833
vt 0.790356 0.021099
vt 0.824092 0.026822
vt 0.809673 0.016147
vt 0.820942 0.072048
vt 0.811599 0.056034
vt 0.819375 0.056850
vt 0.796169 0.069705
vt 0.792873 0.074471
vt 0.787930 0.067659
vt 0.787300 0.076123
vt 0.782042 0.073777
vt 0.779566 0.068505
vt 0.780951 0.062839
vt 0.785614 0.059478
vt 0.791383 0.059987
vt 0.795574 0.064001
vt 0.813541 0.074603
vt 0.803030 0.089281
vt 0.761263 0.070510
vt 0.798415 0.043746
vt 0.903731 0.851170
vt 0.905899 0.868964
vt 0.892639 0.858249
vt 0.746108 0.095852
vt 0.920940 0.849338
vt 0.916989 0.861887
vt 0.741278 0.049730
vt 0.890971 0.820397
vt 0.905744 0.809568
vt 0.902648 0.826461
vt 0.783630 0.017665
vt 0.881331 0.805704
vt 0.894172 0.802838
vt 0.826388 0.035671
vt 0.819121 0.033423
vt 0.870699 0.846843
vt 0.853802 0.840405
vt 0.870129 0.833700
vt 0.863260 0.863254
vt 0.854371 0.853551
vt 0.800814 0.112846
vt 0.795084 0.117809
vt 0.878639 0.843369
vt 0.883439 0.848605
vt 0.879589 0.856544
vt 0.890485 0.849525
vt 0.896478 0.845699
vt 0.907685 0.838619
vt 0.898615 0.838917
vt 0.895896 0.832353
vt 0.889592 0.829079
vt 0.878130 0.823261
vt 0.882656 0.830627
vt 0.878332 0.836269
vt 0.412894 0.367209
vt 0.381051 0.374416
vt 0.380910 0.367541
vt 0.412716 0.360338
vt 0.380732 0.360667
vt 0.412552 0.353467
vt 0.380568 0.353792
vt 0.412446 0.346594
vt 0.380462 0.346916
vt 0.532675 0.048143
vt 0.490004 0.040087
vt 0.532493 0.039011
vt 0.489899 0.030951
vt 0.532387 0.029879
vt 0.489810 0.021816
vt 0.532299 0.020745
vt 0.489672 0.012680
vt 0.532161 0.011612
vt 0.531932 0.002480
vt 0.489442 0.003547
vt 0.289159 0.226513
vt 0.341609 0.237218
vt 0.289123 0.237037
vt 0.289014 0.268610
vt 0.341464 0.279314
vt 0.288978 0.279133
vt 0.289050 0.258086
vt 0.341500 0.268791
vt 0.289086 0.247561
vt 0.341536 0.258267
vt 0.341573 0.247742
vt 0.349480 0.321496
vt 0.361022 0.316304
vt 0.358825 0.326844
vt 0.350852 0.334078
vt 0.363242 0.336662
vt 0.369527 0.325677
vt 0.499883 0.182015
vt 0.512726 0.186902
vt 0.502940 0.193296
vt 0.512046 0.200626
vt 0.498782 0.204220
vt 0.491266 0.192717
vt 0.010771 0.781122
vt 0.044590 0.777826
vt 0.044529 0.775999
vt 0.044529 0.775998
vt 0.010917 0.736538
vt 0.056730 0.736768
vt 0.058506 0.451456
vt 0.012840 0.452975
vt 0.058650 0.453293
vt 0.056730 0.736769
vt 0.005859 0.781099
vt 0.058514 0.737043
vt 0.060485 0.453338
vt 0.058651 0.453293
vt 0.005990 0.736515
vt 0.007932 0.452949
vt 0.046296 0.776516
vt 0.916560 0.870400
vt 0.970850 0.827208
vt 0.920870 0.886086
vt 0.920870 0.886087
vt 0.985225 0.911364
vt 0.996651 0.899784
vt 0.996652 0.899785
vt 0.767246 0.094659
vt 0.734690 0.056115
vt 0.774433 0.036876
vt 0.832694 0.090631
vt 0.413035 0.374082
vt 0.490186 0.049221
vt 0.341645 0.226694
vt 0.010942 0.786044
vt 0.010771 0.781121
vt 0.012444 0.448081
s 1
usemtl phong1SG.001
f 1/1/1 3/2/1 4/3/1
f 4/4/2 5/5/2 6/6/2
f 8/7/3 10/8/3 7/9/4
f 11/10/5 9/11/6 8/7/7
f 13/12/8 10/8/9 14/13/10
f 11/14/11 16/15/12 12/16/13
f 15/17/14 18/18/15 16/15/16
f 13/19/17 18/18/18 17/20/19
f 9/11/20 20/21/20 10/8/20
f 12/22/21 19/23/22 9/11/23
f 14/13/24 20/21/25 22/24/24
f 12/16/21 23/25/26 21/26/27
f 18/18/28 23/25/29 16/15/29
f 14/27/24 24/28/30 18/18/30
f 20/21/31 2/29/31 1/1/31
f 21/30/32 2/29/32 19/23/32
f 22/24/33 1/1/33 4/31/33
f 21/26/34 5/5/34 3/32/34
f 23/25/35 6/6/35 5/5/35
f 22/33/36 6/6/36 24/28/36
f 25/34/37 27/35/38 28/36/37
f 25/34/39 30/37/39 29/38/40
f 31/39/41 30/37/41 32/40/41
f 31/39/42 34/41/42 33/42/43
f 33/42/44 36/43/44 35/44/44
f 35/44/45 27/35/45 26/45/45
f 28/36/31 37/20/31 38/17/31
f 30/37/31 38/17/31 8/7/31
f 30/37/31 7/9/31 32/40/31
f 32/40/31 39/46/31 34/41/31
f 36/43/31 39/46/31 40/47/31
f 27/35/31 40/47/31 37/20/31
f 42/48/43 44/49/42 41/50/42
f 8/7/46 45/51/47 11/10/48
f 7/9/49 46/52/50 39/46/51
f 40/47/52 48/53/53 37/20/54
f 43/3/55 50/29/55 44/2/55
f 45/10/56 15/17/57 11/14/58
f 46/54/59 17/20/60 52/55/61
f 48/12/62 53/56/63 54/57/64
f 54/57/35 56/37/35 51/7/35
f 51/7/35 57/58/35 15/17/35
f 17/20/35 57/58/35 58/35/35
f 52/55/35 58/35/35 59/43/35
f 52/55/35 60/41/35 53/56/35
f 53/56/35 55/59/35 54/57/35
f 56/37/65 26/60/66 25/38/65
f 57/58/67 25/38/67 29/34/67
f 57/58/68 31/45/68 58/35/68
f 59/43/69 31/45/69 33/61/69
f 60/41/70 33/61/71 35/62/72
f 60/41/73 26/60/73 55/59/73
f 37/20/74 62/63/74 38/17/74
f 48/53/75 61/18/75 37/20/75
f 45/51/76 62/63/76 64/16/77
f 48/12/78 65/64/78 63/65/78
f 54/57/79 66/11/79 65/64/79
f 45/10/80 66/11/81 51/7/80
f 61/18/82 68/25/82 62/63/82
f 63/27/83 67/28/84 61/18/84
f 64/16/85 68/25/86 70/66/85
f 63/65/83 71/67/87 69/24/83
f 65/64/88 72/23/88 71/67/88
f 64/22/85 72/23/89 66/11/89
f 68/25/31 42/48/31 41/50/31
f 69/33/90 42/48/90 67/28/90
f 70/66/91 41/50/91 44/68/91
f 69/24/92 49/69/92 43/31/92
f 72/23/35 49/69/35 71/67/35
f 70/70/93 50/29/93 72/23/93
f 73/71/94 75/72/94 76/73/94
f 76/74/95 77/75/96 78/76/95
f 40/47/97 79/77/97 80/78/97
f 46/52/98 79/77/98 39/46/98
f 47/79/99 80/78/100 82/80/100
f 46/54/101 83/81/101 81/80/101
f 53/56/102 83/81/102 52/55/102
f 47/52/103 84/77/103 53/56/104
f 80/78/105 85/82/105 86/83/105
f 81/84/106 85/82/107 79/77/107
f 82/80/108 86/83/109 88/85/108
f 81/80/106 89/83/110 87/86/106
f 84/77/111 89/83/111 83/81/111
f 82/87/108 90/82/112 84/77/112
f 85/82/31 73/71/31 86/83/31
f 87/88/113 74/89/114 85/82/113
f 88/85/115 73/71/116 76/90/116
f 87/86/117 77/75/118 75/90/118
f 89/83/35 78/76/35 77/75/35
f 88/88/119 78/76/120 90/82/119
f 91/91/121 93/92/122 94/93/121
f 95/94/123 93/92/123 92/95/123
f 97/96/124 99/97/124 100/98/124
f 101/99/125 103/100/125 104/101/125
f 102/102/126 106/103/126 103/100/126
f 107/104/127 109/105/127 110/106/127
f 111/107/128 113/108/128 114/109/128
f 115/110/129 113/108/129 112/111/129
f 118/112/130 120/113/131 117/114/131
f 121/115/132 122/116/132 123/117/132
f 122/116/132 124/118/132 123/117/132
f 124/118/132 125/119/132 123/117/132
f 125/119/132 126/120/132 123/117/132
f 126/120/132 127/121/132 123/117/132
f 127/121/132 128/122/132 123/117/132
f 128/122/132 129/123/132 123/117/132
f 129/123/132 130/124/132 123/117/132
f 130/124/132 121/115/132 123/117/132
f 122/116/133 119/125/134 131/126/134
f 124/118/135 131/126/135 100/98/135
f 125/119/136 100/98/137 99/97/137
f 126/120/138 99/97/138 132/127/138
f 126/120/139 110/106/139 127/121/139
f 127/121/140 109/105/141 128/122/142
f 128/122/143 133/128/143 129/123/144
f 129/123/145 120/113/145 130/124/145
f 121/115/146 120/113/146 119/125/146
f 134/129/147 101/130/148 98/131/149
f 132/127/132 104/101/132 103/100/132
f 99/97/150 101/132/150 104/101/150
f 134/129/147 105/133/148 102/134/148
f 110/106/151 105/135/151 107/104/151
f 132/127/132 106/103/132 110/106/132
f 135/136/152 111/137/148 108/138/153
f 133/128/132 114/109/132 113/108/132
f 109/105/154 111/139/154 114/109/154
f 135/136/152 115/140/148 112/141/148
f 120/113/155 115/142/155 117/114/155
f 133/128/132 116/143/132 120/113/132
f 136/144/156 91/145/148 118/146/157
f 131/126/132 94/93/132 93/92/132
f 118/112/158 94/93/159 119/125/158
f 136/144/156 95/147/148 92/148/148
f 97/96/160 96/149/161 95/150/161
f 131/126/132 96/149/132 100/98/132
f 118/146/157 138/151/162 136/144/156
f 136/144/156 139/152/163 97/153/164
f 97/153/164 140/154/165 98/131/149
f 98/131/149 141/155/166 134/129/147
f 107/156/167 141/155/166 142/157/168
f 108/138/153 142/157/168 143/158/169
f 135/136/152 143/158/169 144/159/170
f 117/160/171 144/159/170 145/161/172
f 118/146/157 145/161/172 137/162/173
f 138/163/174 146/164/174 147/165/174
f 139/166/175 147/165/175 148/167/175
f 140/168/176 148/167/176 149/169/176
f 141/170/177 149/169/177 150/171/177
f 141/172/178 151/173/178 142/174/179
f 142/174/180 152/175/180 143/176/180
f 143/176/181 153/177/182 144/178/181
f 144/178/183 154/179/183 145/180/183
f 137/181/184 154/179/184 146/182/184
f 156/183/185 158/184/185 155/185/185
f 159/186/186 157/187/186 156/188/186
f 161/189/187 160/190/187 159/186/187
f 163/191/188 162/192/188 161/189/188
f 155/185/189 164/193/189 163/191/189
f 156/194/31 155/195/31 165/196/31
f 159/197/31 156/194/31 165/196/31
f 161/198/31 159/197/31 165/196/31
f 163/199/31 161/198/31 165/196/31
f 155/195/31 163/199/31 165/196/31
f 158/200/35 157/201/35 166/202/35
f 157/201/35 160/203/35 166/202/35
f 160/203/35 162/204/35 166/202/35
f 162/204/35 164/205/35 166/202/35
f 164/205/35 158/200/35 166/202/35
f 168/183/190 170/184/190 167/185/190
f 171/186/186 169/187/186 168/188/186
f 173/189/191 172/190/191 171/186/191
f 175/191/188 174/192/188 173/189/188
f 167/185/189 176/193/189 175/191/189
f 168/194/31 167/195/31 177/196/31
f 171/197/31 168/194/31 177/196/31
f 173/198/31 171/197/31 177/196/31
f 175/199/31 173/198/31 177/196/31
f 167/195/31 175/199/31 177/196/31
f 170/200/35 169/201/35 178/202/35
f 169/201/35 172/203/35 178/202/35
f 172/203/35 174/204/35 178/202/35
f 174/204/35 176/205/35 178/202/35
f 176/205/35 170/200/35 178/202/35
f 180/183/192 182/184/192 179/185/192
f 183/186/186 181/187/186 180/188/186
f 185/189/187 184/190/187 183/186/187
f 187/191/188 186/192/188 185/189/188
f 179/185/189 188/193/189 187/191/189
f 180/194/31 179/195/31 189/196/31
f 183/197/31 180/194/31 189/196/31
f 185/198/31 183/197/31 189/196/31
f 187/199/31 185/198/31 189/196/31
f 179/195/31 187/199/31 189/196/31
f 182/200/35 181/201/35 190/202/35
f 181/201/35 184/203/35 190/202/35
f 184/203/35 186/204/35 190/202/35
f 186/204/35 188/205/35 190/202/35
f 188/205/35 182/200/35 190/202/35
f 192/206/193 194/207/193 191/208/193
f 194/209/194 195/210/195 196/211/196
f 197/212/197 199/213/197 200/214/197
f 199/213/198 202/215/199 200/214/198
f 201/210/200 193/216/200 192/206/200
f 200/214/201 196/217/202 197/218/201
f 196/211/196 198/213/203 197/219/203
f 195/220/200 199/213/200 198/221/200
f 201/210/204 191/208/205 202/215/199
f 202/215/202 194/222/206 196/217/202
f 204/206/207 206/207/207 203/208/207
f 206/209/208 207/210/209 208/211/210
f 209/212/211 211/213/211 212/214/211
f 211/213/212 214/215/213 212/214/212
f 213/210/214 205/216/214 204/206/214
f 212/214/215 208/217/216 209/218/215
f 209/219/217 207/210/209 210/213/217
f 207/220/214 211/213/214 210/221/214
f 213/210/218 203/208/219 214/215/213
f 214/215/216 206/222/220 208/217/216
f 216/206/221 218/207/221 215/208/221
f 218/209/222 219/210/223 220/211/224
f 221/212/225 223/213/225 224/214/225
f 223/213/226 226/215/227 224/214/226
f 225/210/228 217/216/228 216/206/228
f 224/214/229 220/217/230 221/218/229
f 220/211/224 222/213/231 221/219/231
f 219/220/228 223/213/228 222/221/228
f 225/210/232 215/208/233 226/215/227
f 226/215/230 218/222/234 220/217/230
f 1/1/1 2/29/1 3/2/1
f 4/4/2 3/223/2 5/5/2
f 8/7/3 9/11/235 10/8/3
f 11/10/5 12/22/236 9/11/6
f 13/12/8 7/9/237 10/8/9
f 11/14/11 15/17/238 16/15/12
f 15/17/14 17/20/239 18/18/15
f 13/19/17 14/27/240 18/18/18
f 9/11/20 19/23/20 20/21/20
f 12/22/21 21/30/27 19/23/22
f 14/13/24 10/8/25 20/21/25
f 12/16/21 16/15/241 23/25/26
f 18/18/28 24/28/28 23/25/29
f 14/27/24 22/33/24 24/28/30
f 20/21/31 19/23/31 2/29/31
f 21/30/32 3/224/32 2/29/32
f 22/24/33 20/21/33 1/1/33
f 21/26/34 23/25/34 5/5/34
f 23/25/35 24/28/35 6/6/35
f 22/33/36 4/225/36 6/6/36
f 25/34/37 26/45/38 27/35/38
f 25/34/39 28/36/39 30/37/39
f 31/39/41 29/38/242 30/37/41
f 31/39/42 32/40/42 34/41/42
f 33/42/44 34/41/44 36/43/44
f 35/44/45 36/43/243 27/35/45
f 28/36/31 27/35/31 37/20/31
f 30/37/31 28/36/31 38/17/31
f 30/37/31 8/7/31 7/9/31
f 32/40/31 7/9/31 39/46/31
f 36/43/31 34/41/31 39/46/31
f 27/35/31 36/43/31 40/47/31
f 42/48/43 43/4/43 44/49/42
f 8/7/46 38/17/244 45/51/47
f 7/9/49 13/12/245 46/52/50
f 40/47/52 47/79/52 48/53/53
f 43/3/55 49/69/55 50/29/55
f 45/10/56 51/7/246 15/17/57
f 46/54/59 13/19/247 17/20/60
f 48/12/62 47/52/248 53/56/63
f 54/57/35 55/59/35 56/37/35
f 51/7/35 56/37/35 57/58/35
f 17/20/35 15/17/35 57/58/35
f 52/55/35 17/20/35 58/35/35
f 52/55/35 59/43/35 60/41/35
f 53/56/35 60/41/35 55/59/35
f 56/37/65 55/59/66 26/60/66
f 57/58/67 56/37/67 25/38/67
f 57/58/68 29/34/68 31/45/68
f 59/43/69 58/35/69 31/45/69
f 60/41/70 59/43/71 33/61/71
f 60/41/73 35/62/73 26/60/73
f 37/20/74 61/18/74 62/63/74
f 48/53/75 63/27/75 61/18/75
f 45/51/76 38/17/249 62/63/76
f 48/12/78 54/57/78 65/64/78
f 54/57/79 51/7/79 66/11/79
f 45/10/80 64/22/81 66/11/81
f 61/18/82 67/28/82 68/25/82
f 63/27/83 69/33/83 67/28/84
f 64/16/85 62/63/250 68/25/86
f 63/65/83 65/64/251 71/67/87
f 65/64/88 66/11/88 72/23/88
f 64/22/85 70/70/85 72/23/89
f 68/25/31 67/28/31 42/48/31
f 69/33/90 43/226/90 42/48/90
f 70/66/91 68/25/91 41/50/91
f 69/24/92 71/67/92 49/69/92
f 72/23/35 50/29/35 49/69/35
f 70/70/93 44/224/93 50/29/93
f 73/71/94 74/89/94 75/72/94
f 76/74/95 75/227/252 77/75/96
f 40/47/97 39/46/253 79/77/97
f 46/52/98 81/84/98 79/77/98
f 47/79/99 40/47/99 80/78/100
f 46/54/101 52/55/101 83/81/101
f 53/56/102 84/77/254 83/81/102
f 47/52/103 82/87/103 84/77/103
f 80/78/105 79/77/105 85/82/105
f 81/84/106 87/88/106 85/82/107
f 82/80/108 80/78/109 86/83/109
f 81/80/106 83/81/110 89/83/110
f 84/77/111 90/82/111 89/83/111
f 82/87/108 88/88/108 90/82/112
f 85/82/31 74/89/31 73/71/31
f 87/88/113 75/228/114 74/89/114
f 88/85/115 86/83/115 73/71/116
f 87/86/117 89/83/117 77/75/118
f 89/83/35 90/82/35 78/76/35
f 88/88/119 76/229/120 78/76/120
f 91/91/121 92/95/255 93/92/122
f 95/94/123 96/149/123 93/92/123
f 97/96/124 98/230/124 99/97/124
f 101/99/125 102/102/256 103/100/125
f 102/102/126 105/231/126 106/103/126
f 107/104/127 108/232/127 109/105/127
f 111/107/128 112/111/128 113/108/128
f 115/110/129 116/143/129 113/108/129
f 118/112/130 119/125/257 120/113/131
f 122/116/133 121/115/133 119/125/134
f 124/118/135 122/116/135 131/126/135
f 125/119/136 124/118/136 100/98/137
f 126/120/138 125/119/138 99/97/138
f 126/120/139 132/127/139 110/106/139
f 127/121/140 110/106/141 109/105/141
f 128/122/143 109/105/143 133/128/143
f 129/123/145 133/128/258 120/113/145
f 121/115/146 130/124/259 120/113/146
f 134/129/147 102/134/148 101/130/148
f 132/127/132 99/97/132 104/101/132
f 99/97/150 98/230/150 101/132/150
f 134/129/147 107/156/167 105/133/148
f 110/106/151 106/103/151 105/135/151
f 132/127/132 103/100/132 106/103/132
f 135/136/152 112/141/148 111/137/148
f 133/128/132 109/105/132 114/109/132
f 109/105/154 108/232/154 111/139/154
f 135/136/152 117/160/171 115/140/148
f 120/113/155 116/143/155 115/142/155
f 133/128/132 113/108/132 116/143/132
f 136/144/156 92/148/148 91/145/148
f 131/126/132 119/125/132 94/93/132
f 118/112/158 91/233/159 94/93/159
f 136/144/156 97/153/164 95/147/148
f 97/96/160 100/98/160 96/149/161
f 131/126/132 93/92/132 96/149/132
f 118/146/157 137/162/173 138/151/162
f 136/144/156 138/151/162 139/152/163
f 97/153/164 139/152/163 140/154/165
f 98/131/149 140/154/165 141/155/166
f 107/156/167 134/129/147 141/155/166
f 108/138/153 107/156/167 142/157/168
f 135/136/152 108/138/153 143/158/169
f 117/160/171 135/136/152 144/159/170
f 118/146/157 117/160/171 145/161/172
f 138/163/174 137/234/174 146/164/174
f 139/166/175 138/163/175 147/165/175
f 140/168/176 139/166/176 148/167/176
f 141/170/177 140/168/177 149/169/177
f 141/172/178 150/235/178 151/173/178
f 142/174/180 151/173/180 152/175/180
f 143/176/181 152/175/182 153/177/182
f 144/178/183 153/177/183 154/179/183
f 137/181/184 145/180/184 154/179/184
f 156/183/185 157/236/185 158/184/185
f 159/186/186 160/190/186 157/187/186
f 161/189/187 162/192/187 160/190/187
f 163/191/188 164/193/188 162/192/188
f 155/185/189 158/184/189 164/193/189
f 168/183/190 169/236/190 170/184/190
f 171/186/186 172/190/186 169/187/186
f 173/189/191 174/192/191 172/190/191
f 175/191/188 176/193/188 174/192/188
f 167/185/189 170/184/189 176/193/189
f 180/183/192 181/236/192 182/184/192
f 183/186/186 184/190/186 181/187/186
f 185/189/187 186/192/187 184/190/187
f 187/191/188 188/193/188 186/192/188
f 179/185/189 182/184/189 188/193/189
f 192/206/193 193/237/193 194/207/193
f 194/209/194 193/238/260 195/210/195
f 197/212/197 198/239/197 199/213/197
f 199/213/198 201/210/204 202/215/199
f 201/210/200 195/220/200 193/216/200
f 200/214/201 202/215/202 196/217/202
f 196/211/196 195/210/195 198/213/203
f 195/220/200 201/210/200 199/213/200
f 201/210/204 192/206/261 191/208/205
f 202/215/202 191/208/206 194/222/206
f 204/206/207 205/237/207 206/207/207
f 206/209/208 205/238/262 207/210/209
f 209/212/211 210/239/211 211/213/211
f 211/213/212 213/210/218 214/215/213
f 213/210/214 207/220/214 205/216/214
f 212/214/215 214/215/216 208/217/216
f 209/219/217 208/211/210 207/210/209
f 207/220/214 213/210/214 211/213/214
f 213/210/218 204/206/263 203/208/219
f 214/215/216 203/208/220 206/222/220
f 216/206/221 217/237/221 218/207/221
f 218/209/222 217/238/264 219/210/223
f 221/212/225 222/239/225 223/213/225
f 223/213/226 225/210/232 226/215/227
f 225/210/228 219/220/228 217/216/228
f 224/214/229 226/215/230 220/217/230
f 220/211/224 219/210/223 222/213/231
f 219/220/228 225/210/228 223/213/228
f 225/210/232 216/206/265 215/208/233
f 226/215/230 215/208/234 218/222/234
